<svg width="20" height="12" viewBox="0 0 20 12" fill="none" xmlns="http://www.w3.org/2000/svg">
<path d="M10.0002 4.005C11.0611 4.005 12.0785 4.42643 12.8286 5.17657C13.5788 5.92672 14.0002 6.94413 14.0002 8.005C14.0002 9.06587 13.5788 10.0833 12.8286 10.8334C12.0785 11.5836 11.0611 12.005 10.0002 12.005C8.93932 12.005 7.9219 11.5836 7.17176 10.8334C6.42161 10.0833 6.00019 9.06587 6.00019 8.005C6.00019 6.94413 6.42161 5.92672 7.17176 5.17657C7.9219 4.42643 8.93932 4.005 10.0002 4.005ZM10.0002 5.505C9.33714 5.505 8.70126 5.76839 8.23242 6.23723C7.76358 6.70607 7.50019 7.34196 7.50019 8.005C7.50019 8.66804 7.76358 9.30393 8.23242 9.77277C8.70126 10.2416 9.33714 10.505 10.0002 10.505C10.6632 10.505 11.2991 10.2416 11.768 9.77277C12.2368 9.30393 12.5002 8.66804 12.5002 8.005C12.5002 7.34196 12.2368 6.70607 11.768 6.23723C11.2991 5.76839 10.6632 5.505 10.0002 5.505ZM10.0002 0.5C14.6132 0.5 18.5962 3.65 19.7012 8.064C19.7496 8.25695 19.7194 8.46122 19.6172 8.63187C19.5149 8.80253 19.3491 8.9256 19.1562 8.974C18.9632 9.0224 18.759 8.99217 18.5883 8.88997C18.4177 8.78776 18.2946 8.62195 18.2462 8.429C17.7832 6.59247 16.7204 4.96306 15.2262 3.79913C13.7321 2.6352 11.8921 2.00338 9.99813 2.00384C8.10414 2.0043 6.2645 2.63702 4.77092 3.80167C3.27733 4.96632 2.21529 6.59625 1.75319 8.433C1.72935 8.5286 1.68692 8.61857 1.62831 8.69778C1.56971 8.77698 1.49608 8.84387 1.41162 8.89461C1.32717 8.94536 1.23354 8.97898 1.1361 8.99354C1.03865 9.00811 0.939289 9.00333 0.843686 8.9795C0.748084 8.95566 0.658112 8.91323 0.578909 8.85463C0.499705 8.79602 0.43282 8.72239 0.382073 8.63793C0.331326 8.55348 0.29771 8.45986 0.283145 8.36241C0.26858 8.26496 0.273351 8.1656 0.297186 8.07C0.839028 5.90704 2.08824 3.98722 3.84629 2.61563C5.60435 1.24405 7.77039 0.49939 10.0002 0.5Z" fill="#A7A7A7"/>
</svg>
