 <svg width="31" height="17" viewBox="0 0 31 17" fill="none" xmlns="http://www.w3.org/2000/svg">
                <g clip-path="url(#clip0_828_691)">
                    <path d="M31 0H0V16.3158H31V0Z" fill="#B22234" />
                    <path d="M0 1.88281H31H0ZM31 4.39293H0H31ZM0 6.90306H31H0ZM31 9.41318H0H31ZM0 11.9233H31H0ZM31 14.4334H0H31Z" fill="black" />
                    <path d="M0 1.88281H31M31 4.39293H0M0 6.90306H31M31 9.41318H0M0 11.9233H31M31 14.4334H0" stroke="white" stroke-width="1.25506" />
                    <path d="M12.4 0H0V8.78542H12.4V0Z" fill="#3C3B6E" />
                    <path d="M1.02921 0.382812L1.32429 1.29098L0.551758 0.729703H1.50666L0.734129 1.29098L1.02921 0.382812Z" fill="white" />
                    <path d="M1.02921 2.14062L1.32429 3.0488L0.551758 2.48752H1.50666L0.734129 3.0488L1.02921 2.14062Z" fill="white" />
                    <path d="M1.02921 3.89844L1.32429 4.80661L0.551758 4.24533H1.50666L0.734129 4.80661L1.02921 3.89844Z" fill="white" />
                    <path d="M1.02921 5.6543L1.32429 6.56247L0.551758 6.00119H1.50666L0.734129 6.56247L1.02921 5.6543Z" fill="white" />
                    <path d="M1.02921 7.41016L1.32429 8.31833L0.551758 7.75705H1.50666L0.734129 8.31833L1.02921 7.41016Z" fill="white" />
                    <path d="M2.06437 1.25977L2.35945 2.16794L1.58691 1.60666H2.54182L1.76929 2.16794L2.06437 1.25977Z" fill="white" />
                    <path d="M2.06437 3.01758L2.35945 3.92575L1.58691 3.36447H2.54182L1.76929 3.92575L2.06437 3.01758Z" fill="white" />
                    <path d="M2.06437 4.77539L2.35945 5.68356L1.58691 5.12228H2.54182L1.76929 5.68356L2.06437 4.77539Z" fill="white" />
                    <path d="M2.06437 6.53125L2.35945 7.43942L1.58691 6.87814H2.54182L1.76929 7.43942L2.06437 6.53125Z" fill="white" />
                    <path d="M3.09855 0.382812L3.39363 1.29098L2.62109 0.729703H3.576L2.80346 1.29098L3.09855 0.382812Z" fill="white" />
                    <path d="M3.09855 2.14062L3.39363 3.0488L2.62109 2.48752H3.576L2.80346 3.0488L3.09855 2.14062Z" fill="white" />
                    <path d="M3.09855 3.89844L3.39363 4.80661L2.62109 4.24533H3.576L2.80346 4.80661L3.09855 3.89844Z" fill="white" />
                    <path d="M3.09855 5.6543L3.39363 6.56247L2.62109 6.00119H3.576L2.80346 6.56247L3.09855 5.6543Z" fill="white" />
                    <path d="M3.09855 7.41016L3.39363 8.31833L2.62109 7.75705H3.576L2.80346 8.31833L3.09855 7.41016Z" fill="white" />
                    <path d="M4.13273 1.25977L4.42781 2.16794L3.65527 1.60666H4.61018L3.83764 2.16794L4.13273 1.25977Z" fill="white" />
                    <path d="M4.13273 3.01758L4.42781 3.92575L3.65527 3.36447H4.61018L3.83764 3.92575L4.13273 3.01758Z" fill="white" />
                    <path d="M4.13273 4.77539L4.42781 5.68356L3.65527 5.12228H4.61018L3.83764 5.68356L4.13273 4.77539Z" fill="white" />
                    <path d="M4.13273 6.53125L4.42781 7.43942L3.65527 6.87814H4.61018L3.83764 7.43942L4.13273 6.53125Z" fill="white" />
                    <path d="M5.16495 0.382812L5.46004 1.29098L4.6875 0.729703H5.64241L4.86987 1.29098L5.16495 0.382812Z" fill="white" />
                    <path d="M5.16495 2.14062L5.46004 3.0488L4.6875 2.48752H5.64241L4.86987 3.0488L5.16495 2.14062Z" fill="white" />
                    <path d="M5.16495 3.89844L5.46004 4.80661L4.6875 4.24533H5.64241L4.86987 4.80661L5.16495 3.89844Z" fill="white" />
                    <path d="M5.16495 5.6543L5.46004 6.56247L4.6875 6.00119H5.64241L4.86987 6.56247L5.16495 5.6543Z" fill="white" />
                    <path d="M5.16495 7.41016L5.46004 8.31833L4.6875 7.75705H5.64241L4.86987 8.31833L5.16495 7.41016Z" fill="white" />
                    <path d="M6.20011 1.25977L6.49519 2.16794L5.72266 1.60666H6.67756L5.90503 2.16794L6.20011 1.25977Z" fill="white" />
                    <path d="M6.20011 3.01758L6.49519 3.92575L5.72266 3.36447H6.67756L5.90503 3.92575L6.20011 3.01758Z" fill="white" />
                    <path d="M6.20011 4.77539L6.49519 5.68356L5.72266 5.12228H6.67756L5.90503 5.68356L6.20011 4.77539Z" fill="white" />
                    <path d="M6.20011 6.53125L6.49519 7.43942L5.72266 6.87814H6.67756L5.90503 7.43942L6.20011 6.53125Z" fill="white" />
                    <path d="M7.23136 0.382812L7.52644 1.29098L6.75391 0.729703H7.70881L6.93628 1.29098L7.23136 0.382812Z" fill="white" />
                    <path d="M7.23136 2.14062L7.52644 3.0488L6.75391 2.48752H7.70881L6.93628 3.0488L7.23136 2.14062Z" fill="white" />
                    <path d="M7.23136 3.89844L7.52644 4.80661L6.75391 4.24533H7.70881L6.93628 4.80661L7.23136 3.89844Z" fill="white" />
                    <path d="M7.23136 5.6543L7.52644 6.56247L6.75391 6.00119H7.70881L6.93628 6.56247L7.23136 5.6543Z" fill="white" />
                    <path d="M7.23136 7.41016L7.52644 8.31833L6.75391 7.75705H7.70881L6.93628 8.31833L7.23136 7.41016Z" fill="white" />
                    <path d="M8.26554 1.25977L8.56062 2.16794L7.78809 1.60666H8.74299L7.97046 2.16794L8.26554 1.25977Z" fill="white" />
                    <path d="M8.26554 3.01758L8.56062 3.92575L7.78809 3.36447H8.74299L7.97046 3.92575L8.26554 3.01758Z" fill="white" />
                    <path d="M8.26554 4.77539L8.56062 5.68356L7.78809 5.12228H8.74299L7.97046 5.68356L8.26554 4.77539Z" fill="white" />
                    <path d="M8.26554 6.53125L8.56062 7.43942L7.78809 6.87814H8.74299L7.97046 7.43942L8.26554 6.53125Z" fill="white" />
                    <path d="M9.3007 0.382812L9.59578 1.29098L8.82324 0.729703H9.77815L9.00561 1.29098L9.3007 0.382812Z" fill="white" />
                    <path d="M9.3007 2.14062L9.59578 3.0488L8.82324 2.48752H9.77815L9.00561 3.0488L9.3007 2.14062Z" fill="white" />
                    <path d="M9.3007 3.89844L9.59578 4.80661L8.82324 4.24533H9.77815L9.00561 4.80661L9.3007 3.89844Z" fill="white" />
                    <path d="M9.3007 5.6543L9.59578 6.56247L8.82324 6.00119H9.77815L9.00561 6.56247L9.3007 5.6543Z" fill="white" />
                    <path d="M9.3007 7.41016L9.59578 8.31833L8.82324 7.75705H9.77815L9.00561 8.31833L9.3007 7.41016Z" fill="white" />
                    <path d="M10.3339 1.25977L10.629 2.16794L9.85645 1.60666H10.8114L10.0388 2.16794L10.3339 1.25977Z" fill="white" />
                    <path d="M10.3339 3.01758L10.629 3.92575L9.85645 3.36447H10.8114L10.0388 3.92575L10.3339 3.01758Z" fill="white" />
                    <path d="M10.3339 4.77539L10.629 5.68356L9.85645 5.12228H10.8114L10.0388 5.68356L10.3339 4.77539Z" fill="white" />
                    <path d="M10.3339 6.53125L10.629 7.43942L9.85645 6.87814H10.8114L10.0388 7.43942L10.3339 6.53125Z" fill="white" />
                    <path d="M11.3651 0.382812L11.6602 1.29098L10.8877 0.729703H11.8426L11.0701 1.29098L11.3651 0.382812Z" fill="white" />
                    <path d="M11.3651 2.14062L11.6602 3.0488L10.8877 2.48752H11.8426L11.0701 3.0488L11.3651 2.14062Z" fill="white" />
                    <path d="M11.3651 3.89844L11.6602 4.80661L10.8877 4.24533H11.8426L11.0701 4.80661L11.3651 3.89844Z" fill="white" />
                    <path d="M11.3651 5.6543L11.6602 6.56247L10.8877 6.00119H11.8426L11.0701 6.56247L11.3651 5.6543Z" fill="white" />
                    <path d="M11.3651 7.41016L11.6602 8.31833L10.8877 7.75705H11.8426L11.0701 8.31833L11.3651 7.41016Z" fill="white" />
                </g>
                <defs>
                    <clipPath id="clip0_828_691">
                        <rect width="31" height="16.3158" fill="white" />
                    </clipPath>
                </defs>
            </svg>